<mxfile host="Electron" modified="2023-12-11T15:26:59.059Z" agent="Mozilla/5.0 (Windows NT 10.0; Win64; x64) AppleWebKit/537.36 (KHTML, like Gecko) draw.io/22.1.2 Chrome/114.0.5735.289 Electron/25.9.4 Safari/537.36" etag="Jy_kfFM0r-hytEfeIf4j" version="22.1.2" type="device">
  <diagram name="Page-1" id="edf60f1a-56cd-e834-aa8a-f176f3a09ee4">
    <mxGraphModel dx="993" dy="1060" grid="1" gridSize="10" guides="1" tooltips="1" connect="1" arrows="1" fold="1" page="1" pageScale="1" pageWidth="1100" pageHeight="850" background="none" math="0" shadow="0">
      <root>
        <mxCell id="0" />
        <mxCell id="1" parent="0" />
        <mxCell id="uFgtll1lMwdGewswQO8k-1" value="&lt;font style=&quot;font-size: 14px;&quot;&gt;&lt;b style=&quot;&quot;&gt;START&lt;/b&gt;&lt;/font&gt;" style="html=1;dashed=0;whiteSpace=wrap;shape=mxgraph.dfd.start;fontSize=16;" parent="1" vertex="1">
          <mxGeometry x="650" y="160" width="120" height="40" as="geometry" />
        </mxCell>
        <mxCell id="uFgtll1lMwdGewswQO8k-3" value="" style="endArrow=classic;html=1;rounded=0;fontSize=12;startSize=8;endSize=8;curved=1;entryX=0.5;entryY=0;entryDx=0;entryDy=0;exitX=0.5;exitY=0.5;exitDx=0;exitDy=20;exitPerimeter=0;" parent="1" source="uFgtll1lMwdGewswQO8k-1" edge="1">
          <mxGeometry width="50" height="50" relative="1" as="geometry">
            <mxPoint x="740" y="220" as="sourcePoint" />
            <mxPoint x="710" y="250" as="targetPoint" />
          </mxGeometry>
        </mxCell>
        <mxCell id="uFgtll1lMwdGewswQO8k-7" value="" style="edgeStyle=none;curved=1;rounded=0;orthogonalLoop=1;jettySize=auto;html=1;fontSize=12;startSize=8;endSize=8;" parent="1" source="uFgtll1lMwdGewswQO8k-5" target="uFgtll1lMwdGewswQO8k-6" edge="1">
          <mxGeometry relative="1" as="geometry" />
        </mxCell>
        <mxCell id="uFgtll1lMwdGewswQO8k-5" value="&lt;span style=&quot;font-size: 14px;&quot;&gt;&lt;b&gt;BROWSE AVAILABLE LOT&lt;/b&gt;&lt;/span&gt;" style="rounded=1;whiteSpace=wrap;html=1;fontSize=16;" parent="1" vertex="1">
          <mxGeometry x="650" y="250" width="120" height="60" as="geometry" />
        </mxCell>
        <mxCell id="uFgtll1lMwdGewswQO8k-9" value="" style="edgeStyle=none;curved=1;rounded=0;orthogonalLoop=1;jettySize=auto;html=1;fontSize=12;startSize=8;endSize=8;" parent="1" source="uFgtll1lMwdGewswQO8k-6" target="uFgtll1lMwdGewswQO8k-8" edge="1">
          <mxGeometry relative="1" as="geometry" />
        </mxCell>
        <mxCell id="uFgtll1lMwdGewswQO8k-6" value="&lt;span style=&quot;font-size: 13px;&quot;&gt;&lt;b&gt;SCHEDULE FOR CHECKING LOT SORROUNDING&lt;/b&gt;&lt;/span&gt;" style="whiteSpace=wrap;html=1;fontSize=16;rounded=1;" parent="1" vertex="1">
          <mxGeometry x="640" y="360" width="140" height="80" as="geometry" />
        </mxCell>
        <mxCell id="uFgtll1lMwdGewswQO8k-13" value="" style="edgeStyle=none;curved=1;rounded=0;orthogonalLoop=1;jettySize=auto;html=1;fontSize=12;startSize=8;endSize=8;" parent="1" source="uFgtll1lMwdGewswQO8k-8" target="uFgtll1lMwdGewswQO8k-12" edge="1">
          <mxGeometry relative="1" as="geometry" />
        </mxCell>
        <mxCell id="uFgtll1lMwdGewswQO8k-18" value="" style="edgeStyle=none;curved=1;rounded=0;orthogonalLoop=1;jettySize=auto;html=1;fontSize=12;startSize=8;endSize=8;" parent="1" source="uFgtll1lMwdGewswQO8k-8" target="uFgtll1lMwdGewswQO8k-17" edge="1">
          <mxGeometry relative="1" as="geometry" />
        </mxCell>
        <mxCell id="uFgtll1lMwdGewswQO8k-8" value="&lt;b&gt;&lt;font style=&quot;font-size: 13px;&quot;&gt;PAYMENT&lt;/font&gt;&lt;/b&gt;" style="rhombus;whiteSpace=wrap;html=1;fontSize=16;rounded=1;" parent="1" vertex="1">
          <mxGeometry x="670" y="480" width="80" height="80" as="geometry" />
        </mxCell>
        <mxCell id="uFgtll1lMwdGewswQO8k-15" value="" style="edgeStyle=none;curved=1;rounded=0;orthogonalLoop=1;jettySize=auto;html=1;fontSize=12;startSize=8;endSize=8;" parent="1" source="uFgtll1lMwdGewswQO8k-12" target="uFgtll1lMwdGewswQO8k-14" edge="1">
          <mxGeometry relative="1" as="geometry" />
        </mxCell>
        <mxCell id="uFgtll1lMwdGewswQO8k-12" value="" style="shape=waypoint;sketch=0;size=6;pointerEvents=1;points=[];fillColor=default;resizable=0;rotatable=0;perimeter=centerPerimeter;snapToPoint=1;fontSize=16;rounded=1;" parent="1" vertex="1">
          <mxGeometry x="830" y="510" width="20" height="20" as="geometry" />
        </mxCell>
        <mxCell id="uFgtll1lMwdGewswQO8k-16" value="" style="edgeStyle=none;curved=1;rounded=0;orthogonalLoop=1;jettySize=auto;html=1;fontSize=12;startSize=8;endSize=8;" parent="1" source="uFgtll1lMwdGewswQO8k-14" target="uFgtll1lMwdGewswQO8k-5" edge="1">
          <mxGeometry relative="1" as="geometry" />
        </mxCell>
        <mxCell id="uFgtll1lMwdGewswQO8k-14" value="" style="shape=waypoint;sketch=0;size=6;pointerEvents=1;points=[];fillColor=default;resizable=0;rotatable=0;perimeter=centerPerimeter;snapToPoint=1;fontSize=16;rounded=1;" parent="1" vertex="1">
          <mxGeometry x="830" y="270" width="20" height="20" as="geometry" />
        </mxCell>
        <mxCell id="uFgtll1lMwdGewswQO8k-17" value="&lt;b&gt;&lt;font style=&quot;font-size: 15px;&quot;&gt;SIGNING OF CONTRACT AND PAYMENT PROCESSING&lt;/font&gt;&lt;/b&gt;" style="rounded=1;whiteSpace=wrap;html=1;fontSize=16;" parent="1" vertex="1">
          <mxGeometry x="630" y="610" width="160" height="90" as="geometry" />
        </mxCell>
        <mxCell id="uFgtll1lMwdGewswQO8k-19" value="NO" style="text;strokeColor=none;fillColor=none;html=1;align=center;verticalAlign=middle;whiteSpace=wrap;rounded=0;fontSize=16;" parent="1" vertex="1">
          <mxGeometry x="760" y="490" width="60" height="30" as="geometry" />
        </mxCell>
        <mxCell id="uFgtll1lMwdGewswQO8k-20" value="YES" style="text;strokeColor=none;fillColor=none;html=1;align=center;verticalAlign=middle;whiteSpace=wrap;rounded=0;fontSize=16;" parent="1" vertex="1">
          <mxGeometry x="710" y="570" width="60" height="30" as="geometry" />
        </mxCell>
        <mxCell id="RyEKuef0UkZVwxssOhH2-1" value="&lt;font style=&quot;font-size: 19px;&quot;&gt;&lt;b&gt;Client Side&lt;/b&gt;&lt;/font&gt;" style="text;html=1;align=center;verticalAlign=middle;whiteSpace=wrap;rounded=0;fontSize=16;" vertex="1" parent="1">
          <mxGeometry x="620" y="100" width="190" height="30" as="geometry" />
        </mxCell>
        <mxCell id="RyEKuef0UkZVwxssOhH2-28" value="" style="edgeStyle=none;curved=1;rounded=0;orthogonalLoop=1;jettySize=auto;html=1;fontSize=12;startSize=8;endSize=8;" edge="1" parent="1" source="RyEKuef0UkZVwxssOhH2-2" target="RyEKuef0UkZVwxssOhH2-27">
          <mxGeometry relative="1" as="geometry" />
        </mxCell>
        <mxCell id="RyEKuef0UkZVwxssOhH2-2" value="&lt;font style=&quot;font-size: 14px;&quot;&gt;&lt;b style=&quot;&quot;&gt;START&lt;/b&gt;&lt;/font&gt;" style="html=1;dashed=0;whiteSpace=wrap;shape=mxgraph.dfd.start;fontSize=16;" vertex="1" parent="1">
          <mxGeometry x="270" y="160" width="120" height="40" as="geometry" />
        </mxCell>
        <mxCell id="RyEKuef0UkZVwxssOhH2-3" value="&lt;font style=&quot;font-size: 19px;&quot;&gt;&lt;b&gt;Admin&amp;nbsp;Side&lt;/b&gt;&lt;/font&gt;" style="text;html=1;align=center;verticalAlign=middle;whiteSpace=wrap;rounded=0;fontSize=16;" vertex="1" parent="1">
          <mxGeometry x="235" y="100" width="190" height="30" as="geometry" />
        </mxCell>
        <mxCell id="RyEKuef0UkZVwxssOhH2-17" value="&lt;b&gt;END&lt;/b&gt;" style="html=1;dashed=0;whiteSpace=wrap;shape=mxgraph.dfd.start;fontSize=16;" vertex="1" parent="1">
          <mxGeometry x="650" y="740" width="120" height="40" as="geometry" />
        </mxCell>
        <mxCell id="RyEKuef0UkZVwxssOhH2-20" style="edgeStyle=none;curved=1;rounded=0;orthogonalLoop=1;jettySize=auto;html=1;entryX=0.5;entryY=0.5;entryDx=0;entryDy=-20;entryPerimeter=0;fontSize=12;startSize=8;endSize=8;" edge="1" parent="1" source="uFgtll1lMwdGewswQO8k-17" target="RyEKuef0UkZVwxssOhH2-17">
          <mxGeometry relative="1" as="geometry" />
        </mxCell>
        <mxCell id="RyEKuef0UkZVwxssOhH2-30" value="" style="edgeStyle=none;curved=1;rounded=0;orthogonalLoop=1;jettySize=auto;html=1;fontSize=12;startSize=8;endSize=8;" edge="1" parent="1" source="RyEKuef0UkZVwxssOhH2-27" target="RyEKuef0UkZVwxssOhH2-29">
          <mxGeometry relative="1" as="geometry" />
        </mxCell>
        <mxCell id="RyEKuef0UkZVwxssOhH2-27" value="LOGIN" style="shape=parallelogram;perimeter=parallelogramPerimeter;whiteSpace=wrap;html=1;fixedSize=1;fontSize=16;dashed=0;" vertex="1" parent="1">
          <mxGeometry x="270" y="250" width="120" height="60" as="geometry" />
        </mxCell>
        <mxCell id="RyEKuef0UkZVwxssOhH2-32" value="" style="edgeStyle=none;curved=1;rounded=0;orthogonalLoop=1;jettySize=auto;html=1;fontSize=12;startSize=8;endSize=8;" edge="1" parent="1" source="RyEKuef0UkZVwxssOhH2-29" target="RyEKuef0UkZVwxssOhH2-31">
          <mxGeometry relative="1" as="geometry" />
        </mxCell>
        <mxCell id="RyEKuef0UkZVwxssOhH2-55" value="" style="edgeStyle=none;curved=1;rounded=0;orthogonalLoop=1;jettySize=auto;html=1;fontSize=12;startSize=8;endSize=8;" edge="1" parent="1" source="RyEKuef0UkZVwxssOhH2-29" target="RyEKuef0UkZVwxssOhH2-54">
          <mxGeometry relative="1" as="geometry" />
        </mxCell>
        <mxCell id="RyEKuef0UkZVwxssOhH2-29" value="&lt;font style=&quot;font-size: 15px;&quot;&gt;REGISTERED&lt;/font&gt;" style="rhombus;whiteSpace=wrap;html=1;fontSize=16;dashed=0;" vertex="1" parent="1">
          <mxGeometry x="270" y="350" width="120" height="110" as="geometry" />
        </mxCell>
        <mxCell id="RyEKuef0UkZVwxssOhH2-34" value="" style="edgeStyle=none;curved=1;rounded=0;orthogonalLoop=1;jettySize=auto;html=1;fontSize=12;startSize=8;endSize=8;" edge="1" parent="1" source="RyEKuef0UkZVwxssOhH2-31" target="RyEKuef0UkZVwxssOhH2-33">
          <mxGeometry relative="1" as="geometry" />
        </mxCell>
        <mxCell id="RyEKuef0UkZVwxssOhH2-31" value="DASHBOARD" style="whiteSpace=wrap;html=1;fontSize=16;dashed=0;" vertex="1" parent="1">
          <mxGeometry x="90" y="375" width="120" height="60" as="geometry" />
        </mxCell>
        <mxCell id="RyEKuef0UkZVwxssOhH2-62" value="" style="edgeStyle=none;curved=1;rounded=0;orthogonalLoop=1;jettySize=auto;html=1;fontSize=12;startSize=8;endSize=8;" edge="1" parent="1" source="RyEKuef0UkZVwxssOhH2-33" target="RyEKuef0UkZVwxssOhH2-38">
          <mxGeometry relative="1" as="geometry" />
        </mxCell>
        <mxCell id="RyEKuef0UkZVwxssOhH2-33" value="REGISTRATION" style="whiteSpace=wrap;html=1;fontSize=16;dashed=0;" vertex="1" parent="1">
          <mxGeometry x="90" y="480" width="120" height="60" as="geometry" />
        </mxCell>
        <mxCell id="RyEKuef0UkZVwxssOhH2-66" value="" style="edgeStyle=none;curved=1;rounded=0;orthogonalLoop=1;jettySize=auto;html=1;fontSize=12;startSize=8;endSize=8;" edge="1" parent="1" source="RyEKuef0UkZVwxssOhH2-35" target="RyEKuef0UkZVwxssOhH2-40">
          <mxGeometry relative="1" as="geometry" />
        </mxCell>
        <mxCell id="RyEKuef0UkZVwxssOhH2-35" value="LOGOUT" style="rhombus;whiteSpace=wrap;html=1;fontSize=16;dashed=0;" vertex="1" parent="1">
          <mxGeometry x="300" y="702.5" width="120" height="105" as="geometry" />
        </mxCell>
        <mxCell id="RyEKuef0UkZVwxssOhH2-37" value="YES" style="text;strokeColor=none;fillColor=none;html=1;align=center;verticalAlign=middle;whiteSpace=wrap;rounded=0;fontSize=16;" vertex="1" parent="1">
          <mxGeometry x="220" y="370" width="60" height="30" as="geometry" />
        </mxCell>
        <mxCell id="RyEKuef0UkZVwxssOhH2-63" value="" style="edgeStyle=none;curved=1;rounded=0;orthogonalLoop=1;jettySize=auto;html=1;fontSize=12;startSize=8;endSize=8;" edge="1" parent="1" source="RyEKuef0UkZVwxssOhH2-38" target="RyEKuef0UkZVwxssOhH2-44">
          <mxGeometry relative="1" as="geometry" />
        </mxCell>
        <mxCell id="RyEKuef0UkZVwxssOhH2-38" value="TRANSACTION" style="whiteSpace=wrap;html=1;fontSize=16;dashed=0;" vertex="1" parent="1">
          <mxGeometry x="90" y="590" width="120" height="60" as="geometry" />
        </mxCell>
        <mxCell id="RyEKuef0UkZVwxssOhH2-40" value="&lt;font style=&quot;font-size: 14px;&quot;&gt;&lt;b style=&quot;&quot;&gt;END&lt;/b&gt;&lt;/font&gt;" style="html=1;dashed=0;whiteSpace=wrap;shape=mxgraph.dfd.start;fontSize=16;" vertex="1" parent="1">
          <mxGeometry x="300" y="590" width="120" height="40" as="geometry" />
        </mxCell>
        <mxCell id="RyEKuef0UkZVwxssOhH2-64" value="" style="edgeStyle=none;curved=1;rounded=0;orthogonalLoop=1;jettySize=auto;html=1;fontSize=12;startSize=8;endSize=8;" edge="1" parent="1" source="RyEKuef0UkZVwxssOhH2-44" target="RyEKuef0UkZVwxssOhH2-35">
          <mxGeometry relative="1" as="geometry" />
        </mxCell>
        <mxCell id="RyEKuef0UkZVwxssOhH2-44" value="&lt;font style=&quot;font-size: 14px;&quot;&gt;BACK TO DASHBOARD&lt;/font&gt;" style="rhombus;whiteSpace=wrap;html=1;fontSize=16;dashed=0;" vertex="1" parent="1">
          <mxGeometry x="85" y="695" width="130" height="120" as="geometry" />
        </mxCell>
        <mxCell id="RyEKuef0UkZVwxssOhH2-57" value="" style="edgeStyle=none;curved=1;rounded=0;orthogonalLoop=1;jettySize=auto;html=1;fontSize=12;startSize=8;endSize=8;" edge="1" parent="1" source="RyEKuef0UkZVwxssOhH2-54" target="RyEKuef0UkZVwxssOhH2-56">
          <mxGeometry relative="1" as="geometry" />
        </mxCell>
        <mxCell id="RyEKuef0UkZVwxssOhH2-54" value="" style="shape=waypoint;sketch=0;size=6;pointerEvents=1;points=[];fillColor=default;resizable=0;rotatable=0;perimeter=centerPerimeter;snapToPoint=1;fontSize=16;dashed=0;" vertex="1" parent="1">
          <mxGeometry x="430" y="395" width="20" height="20" as="geometry" />
        </mxCell>
        <mxCell id="RyEKuef0UkZVwxssOhH2-58" value="" style="edgeStyle=none;curved=1;rounded=0;orthogonalLoop=1;jettySize=auto;html=1;fontSize=12;startSize=8;endSize=8;" edge="1" parent="1" source="RyEKuef0UkZVwxssOhH2-56" target="RyEKuef0UkZVwxssOhH2-27">
          <mxGeometry relative="1" as="geometry" />
        </mxCell>
        <mxCell id="RyEKuef0UkZVwxssOhH2-56" value="" style="shape=waypoint;sketch=0;size=6;pointerEvents=1;points=[];fillColor=default;resizable=0;rotatable=0;perimeter=centerPerimeter;snapToPoint=1;fontSize=16;dashed=0;" vertex="1" parent="1">
          <mxGeometry x="430" y="270" width="20" height="20" as="geometry" />
        </mxCell>
        <mxCell id="RyEKuef0UkZVwxssOhH2-59" value="NO" style="text;strokeColor=none;fillColor=none;html=1;align=center;verticalAlign=middle;whiteSpace=wrap;rounded=0;fontSize=16;" vertex="1" parent="1">
          <mxGeometry x="380" y="370" width="60" height="30" as="geometry" />
        </mxCell>
        <mxCell id="RyEKuef0UkZVwxssOhH2-67" value="YES" style="text;strokeColor=none;fillColor=none;html=1;align=center;verticalAlign=middle;whiteSpace=wrap;rounded=0;fontSize=16;" vertex="1" parent="1">
          <mxGeometry x="365" y="660" width="60" height="30" as="geometry" />
        </mxCell>
      </root>
    </mxGraphModel>
  </diagram>
</mxfile>
